<?xml version="1.0" encoding="UTF-8"?>
<svg width="512px" height="512px" viewBox="0 0 512 512" version="1.1"
     xmlns="http://www.w3.org/2000/svg">
    <!-- Generator: Sketch 42 (36781) - http://www.bohemiancoding.com/sketch -->
    <title>Artboardorco_512</title>
    <desc>Created with Sketch.</desc>
    <defs></defs>
    <g id="Page-1" stroke="none" stroke-width="1" fill="none" fill-rule="evenodd">
        <g id="Artboard">
            <path
                d="M25.6917732,21.6772077 C29.9851764,24.0041346 38.3868552,29.1484524 44.4721011,33.2136884 C62.3081666,45.0797828 97.4557076,63.2085382 124.734396,74.5252764 L133.232757,78.0411562 L132.813085,85.6222721 C131.658986,106.387937 142.990134,130.669482 163.44915,151.435148 C167.855708,155.829997 171.318003,159.675491 171.213085,159.785362 C171.003249,159.895233 158.832757,168.904676 144.144232,179.8918 C115.501609,201.09695 102.701609,208.568195 91.4753798,210.875491 C76.7868552,213.732143 67.1343962,206.151027 67.3442322,191.977637 C67.4491502,182.418839 76.367183,174.61798 97.4557076,165.608538 L104.79997,162.532143 L97.9802978,163.301242 C85.2852158,164.839439 61.7391122,163.301242 53.914724,162.20253 C39.3368864,160.155488 22.7282194,150.506219 17.9043127,141.32429 C15.1741211,136.992055 15.0283654,132.65941 15.0283654,132.65941 C14.9505889,131.889903 14.9571002,130.642601 15.0430876,129.87188 L15.2767893,127.777169 C15.3381084,127.227554 15.5130122,126.36216 15.7049379,125.844552 C15.7049379,125.844552 19.6278388,108.255748 59.1606257,110.892658 L64.9311175,110.892658 L59.4753798,108.255748 C41.8491502,99.5759202 17.1934125,76.8325725 8.06554369,60.4617571 C1.14095353,48.3759202 -2.00658746,30.9063923 1.35078959,24.0943751 C5.44259287,16.0737742 13.7311175,15.1948043 25.6917732,21.6772077 Z"
                id="Combined-Shape-path" fill="#607D8B"></path>
            <path
                d="M485.45806,21.6772077 C497.418716,15.1948043 505.707241,16.0737742 509.799044,24.0943751 C513.156421,30.9063923 510.00888,48.3759202 503.08429,60.4617571 C493.956421,76.8325725 469.300683,99.5759202 451.674454,108.255748 L446.218716,110.892658 L451.989208,110.892658 C491.521995,108.255748 495.444896,125.844552 495.444896,125.844552 C495.636821,126.36216 495.811725,127.227554 495.873044,127.777169 L496.106746,129.87188 C496.192733,130.642601 496.199245,131.889903 496.121468,132.65941 C496.121468,132.65941 495.975713,136.992055 493.245521,141.32429 C488.421614,150.506219 471.812947,160.155488 457.23511,162.20253 C449.410721,163.301242 425.864618,164.839439 413.169536,163.301242 L406.349864,162.532143 L413.694126,165.608538 C434.782651,174.61798 443.700683,182.418839 443.805601,191.977637 C444.015438,206.151027 434.362979,213.732143 419.674454,210.875491 C408.448224,208.568195 395.648224,201.09695 367.005601,179.8918 C352.317077,168.904676 340.146585,159.895233 339.936749,159.785362 C339.831831,159.675491 343.294126,155.829997 347.700683,151.435148 C368.1597,130.669482 379.490847,106.387937 378.336749,85.6222721 L377.917077,78.0411562 L386.415438,74.5252764 C413.694126,63.2085382 448.841667,45.0797828 466.677733,33.2136884 C472.762979,29.1484524 481.164657,24.0041346 485.45806,21.6772077 Z"
                id="Combined-Shape-path" fill="#607D8B"></path>
            <path
                d="M251,496 C159.873016,496 86,422.126984 86,331 C86,239.873016 159.873016,166 251,166 C342.126984,166 416,239.873016 416,331 C416,422.126984 342.126984,496 251,496 Z"
                id="Combined-Shape-path" fill="#607D8B"></path>
            <path
                d="M252.03558,240 L252.03558,240 C246.225196,240 241.506184,244.714537 241.506184,250.529396 L241.506184,257.603834 C223.32655,261.839284 209.259908,277.884505 209.259908,298.569504 C209.259908,311.770208 215.728958,322.08849 223.573306,327.854913 C231.417654,333.621864 239.653379,336.216834 246.60636,339.535699 C259.034733,344.719321 271.851641,350.316748 271.94272,361.746408 C271.94272,375.826316 263.849826,382.8052 251.048449,382.8052 C241.115701,382.8052 232.783106,375.118741 229.002526,367.504408 C226.903175,362.058078 219.877119,359.298323 214.689128,361.910666 C209.501031,364.52301 207.3454,371.924122 210.411561,376.882415 C215.9594,388.056737 226.682479,399.234744 241.506184,402.712077 L241.506184,408.470604 C241.506184,414.285989 246.225196,419 252.03558,419 C257.846022,419 262.564977,414.285989 262.564977,408.470604 L262.564977,402.218775 C279.754585,397.295755 292.836991,381.656443 292.836991,361.746408 C292.836991,348.545704 286.532568,338.063163 278.688115,332.296739 C270.843662,326.529789 262.443683,323.934819 255.490539,320.615954 C243.127343,315.441282 230.244205,309.853331 230.154179,298.569504 C230.154179,284.489068 238.246757,277.510711 251.048449,277.510711 C260.981197,277.510711 269.313793,285.032385 273.094373,292.646718 C275.193724,298.093048 282.384307,300.852803 287.572293,298.24046 C292.760337,295.628117 294.751451,288.227531 291.685338,283.269238 C286.394211,272.612436 276.343381,262.040132 262.564977,258.0974 L262.564977,250.529396 C262.564977,244.714537 257.846022,240 252.03558,240 Z"
                id="Combined-Shape-path" fill="#FFFFFF"></path>
        </g>
    </g>
</svg>