<?xml version="1.0" standalone="no"?>
<!DOCTYPE svg PUBLIC "-//W3C//DTD SVG 20010904//EN"
 "http://www.w3.org/TR/2001/REC-SVG-20010904/DTD/svg10.dtd">
<svg version="1.0" xmlns="http://www.w3.org/2000/svg"
 width="512.000000pt" height="512.000000pt" viewBox="0 0 512.000000 512.000000"
 preserveAspectRatio="xMidYMid meet">

<g transform="translate(0.000000,512.000000) scale(0.100000,-0.100000)"
fill="#000000" stroke="none">
<path d="M144 4842 c-93 -75 -51 -282 93 -463 102 -128 294 -283 426 -345 l52
-24 -55 0 c-136 -1 -270 -35 -326 -84 -33 -28 -38 -39 -42 -89 -4 -48 0 -63
22 -101 50 -85 160 -157 296 -193 72 -19 302 -25 420 -10 l65 8 -90 -37 c-49
-20 -120 -56 -156 -80 -101 -67 -127 -118 -104 -207 25 -96 102 -137 220 -116
105 18 244 96 516 289 l247 175 -92 95 c-191 198 -285 395 -274 579 l4 68
-166 69 c-215 89 -548 255 -680 340 -168 108 -243 144 -304 144 -33 0 -58 -6
-72 -18z"/>
<path d="M4779 4822 c-41 -21 -121 -68 -179 -105 -170 -108 -505 -273 -765
-376 l-81 -32 4 -69 c11 -189 -97 -410 -292 -599 -42 -40 -75 -75 -74 -76 2
-1 118 -83 258 -183 273 -193 395 -261 502 -282 140 -26 232 43 230 172 -1 87
-86 158 -287 240 l-70 28 65 -7 c121 -14 349 -9 420 10 136 36 246 108 296
193 22 38 26 53 22 101 -4 50 -9 61 -40 88 -60 51 -188 84 -328 85 l-55 0 52
24 c168 79 403 286 490 435 66 110 96 269 64 331 -39 73 -118 81 -232 22z"/>
<path d="M2380 3559 c-731 -77 -1321 -627 -1456 -1354 -29 -151 -26 -471 5
-615 141 -665 634 -1159 1296 -1300 143 -31 411 -38 561 -16 947 139 1579
1037 1389 1973 -9 43 -34 130 -55 194 -242 730 -973 1200 -1740 1118z m225
-574 c23 -22 25 -32 25 -108 l0 -84 82 -16 c112 -22 192 -64 259 -134 126
-132 161 -262 93 -343 -30 -35 -89 -55 -138 -46 -55 11 -92 48 -116 120 -24
73 -75 138 -131 166 -21 11 -41 20 -44 20 -3 0 -4 -106 -3 -236 l3 -236 105
-32 c127 -38 183 -65 249 -117 165 -132 211 -386 105 -595 -70 -138 -236 -246
-414 -270 l-50 -7 0 -94 c0 -123 -15 -153 -76 -153 -54 0 -68 27 -72 146 -4
99 -5 104 -26 104 -41 0 -141 30 -215 65 -55 26 -92 54 -145 108 -81 82 -119
151 -137 250 -12 63 -11 68 12 113 40 77 125 106 205 68 39 -19 52 -40 90
-146 36 -99 75 -152 137 -188 29 -16 58 -30 65 -30 10 0 12 56 10 261 l-3 261
-107 38 c-165 58 -246 113 -307 208 -55 86 -77 245 -50 361 39 171 184 298
387 338 l82 16 0 61 c0 82 16 135 43 146 37 15 57 11 82 -15z"/>
<path d="M2405 2534 c-94 -47 -133 -117 -120 -215 10 -71 39 -107 123 -152
l72 -39 0 216 c0 166 -3 216 -12 216 -7 0 -35 -12 -63 -26z"/>
<path d="M2630 1540 l0 -249 47 14 c106 32 179 116 190 217 12 119 -52 202
-195 252 l-42 15 0 -249z"/>
</g>
</svg>
